<svg xmlns="http://www.w3.org/2000/svg" viewBox="0 0 24 24" fill="none" stroke="currentColor" stroke-width="1.75" stroke-linecap="round" stroke-linejoin="round"><path d="M21 12.2C21 11.46 20.939 10.92 20.807 10.36H12.183V13.7H17.245C17.143 14.53 16.592 15.78 15.368 16.62L15.35 16.732L18.077 18.802L18.265 18.82C20.001 17.25 21 14.94 21 12.2Z" fill="currentColor" stroke="none" fill-rule="evenodd"/><path d="M12.184 21C14.663 21 16.745 20.2 18.266 18.82L15.368 16.62C14.592 17.15 13.551 17.52 12.184 17.52C9.821 17.52 7.72 16.016 6.959 13.78L6.851 13.789L4.016 15.939L3.979 16.04C5.49 18.98 8.592 21 12.184 21Z" fill="currentColor" stroke="none" fill-rule="evenodd"/><path d="M6.96 13.78C6.759 13.208 6.655 12.606 6.652 12C6.652 11.38 6.764 10.78 6.947 10.22L6.942 10.1L4.072 7.916L3.978 7.96C3.336 9.21 3.001 10.595 3 12C3 13.45 3.357 14.82 3.979 16.04L6.959 13.78L6.96 13.78Z" fill="currentColor" stroke="none" fill-rule="evenodd"/><path d="M12.184 6.48C13.909 6.48 15.071 7.21 15.735 7.82L18.326 5.34C16.735 3.89 14.663 3 12.184 3C8.591 3 5.49 5.02 3.979 7.96L6.949 10.22C7.717 7.984 9.82 6.482 12.184 6.48Z" fill="currentColor" stroke="none" fill-rule="evenodd"/></svg>
