<svg xmlns="http://www.w3.org/2000/svg" width="256" height="256" viewBox="0 0 64 64" role="img"><title>zork 狗头像 · 原创 SVG</title><rect x="0" y="0" width="64" height="64" rx="18" fill="#EDF3FC"/><path d="M17 20Q10 18 8 27L7 39Q7 45 13 44L20 34ZM47 20Q54 18 56 27L57 39Q57 45 51 44L44 34Z" fill="#526C97"/><path d="M15 27Q15 17 32 17Q49 17 49 27V40Q49 55 32 55Q15 55 15 40Z" fill="#8097BE"/><path d="M34 18Q47 18 48 28V36Q40 40 34 34Q29 27 34 18Z" fill="#E0E9F6"/><ellipse cx="32" cy="43" rx="12.5" ry="8.5" fill="#E0E9F6"/><ellipse cx="24" cy="32" rx="1.9" ry="2.35" fill="#29323D"/><ellipse cx="40" cy="32" rx="1.9" ry="2.35" fill="#29323D"/><ellipse cx="32" cy="40" rx="4.4" ry="3.2" fill="#29323D"/><path d="M32 43v3" fill="none" stroke="#29323D" stroke-width="1.7" stroke-linecap="round" stroke-linejoin="round"/></svg>