<svg xmlns="http://www.w3.org/2000/svg" width="256" height="256" viewBox="0 0 64 64" role="img"><title>zork 猫头鹰头像 · 原创 SVG</title><rect x="0" y="0" width="64" height="64" rx="18" fill="#EFF3E9"/><path d="M12 31L11 14Q17 15 23 20Q32 17 41 20Q47 15 53 14L52 31V38Q51 54 32 56Q13 54 12 38Z" fill="#7E906F"/><path d="M14 29C14 21 26 21 32 28C38 21 50 21 50 29V36C50 48 40 51 32 54C24 51 14 48 14 36Z" fill="#DFE8D4"/><ellipse cx="23" cy="33" rx="6.3" ry="7.1" fill="#FFFDF9"/><ellipse cx="41" cy="33" rx="6.3" ry="7.1" fill="#FFFDF9"/><ellipse cx="24" cy="33" rx="1.9" ry="2.35" fill="#29323D"/><ellipse cx="40" cy="33" rx="1.9" ry="2.35" fill="#29323D"/><path d="M28.5 39L32 35.5L35.5 39L32 44Z" fill="#566B47"/></svg>